<?xml version="1.0" standalone="no"?>
<!DOCTYPE svg PUBLIC "-//W3C//DTD SVG 20010904//EN"
 "http://www.w3.org/TR/2001/REC-SVG-20010904/DTD/svg10.dtd">
<svg version="1.0" xmlns="http://www.w3.org/2000/svg"
 width="320.000000pt" height="320.000000pt" viewBox="0 0 320.000000 320.000000"
 preserveAspectRatio="xMidYMid meet">
<metadata>
Created by potrace 1.14, written by Peter Selinger 2001-2017
</metadata>
<g transform="translate(0.000000,320.000000) scale(0.100000,-0.100000)"
fill="#000000" stroke="none">
<path d="M0 1600 l0 -1600 1600 0 1600 0 0 1600 0 1600 -1600 0 -1600 0 0
-1600z m1798 248 l2 -487 73 -3 c64 -3 72 -5 72 -23 0 -19 -7 -20 -95 -20
l-95 0 -3 500 c-1 275 0 506 3 513 3 8 13 12 22 10 17 -3 18 -35 21 -490z
m-468 -273 c0 -582 -2 -684 -14 -688 -8 -3 -19 0 -25 7 -7 9 -12 213 -13 635
l-3 623 -255 -373 c-140 -205 -266 -390 -280 -411 -13 -21 -33 -38 -43 -38
-14 0 -61 88 -207 385 -104 212 -191 385 -194 385 -3 0 -5 -174 -6 -387 0
-382 -3 -415 -32 -397 -4 3 -8 212 -8 465 0 438 1 459 18 459 14 0 66 -96 225
-421 l207 -422 63 91 c34 50 152 223 261 384 110 161 217 316 238 345 71 97
68 125 68 -642z m1603 681 c16 -12 17 -43 16 -407 -1 -217 -4 -425 -8 -464 -6
-68 -6 -66 -14 60 -4 72 -7 281 -7 465 l0 335 -382 -380 c-501 -498 -568 -562
-568 -547 0 12 927 952 939 952 3 0 14 -7 24 -14z m-1359 -52 c21 -20 20 -43
-1 -66 -32 -36 -83 -17 -83 32 0 14 5 31 12 38 17 17 54 15 72 -4z m-6 -528
c2 -347 0 -373 -35 -344 -10 8 -13 84 -13 343 0 182 3 335 7 339 4 4 14 5 23
4 13 -3 15 -46 18 -342z"/>
</g>
</svg>
